<svg xmlns="http://www.w3.org/2000/svg" viewBox="0 0 200 240" fill="none">
  <!-- בסיס -->
  <ellipse cx="100" cy="216" rx="56" ry="10" fill="#c9a06a" fill-opacity="0.35" stroke="#4a3826" stroke-width="1.8"/>
  <!-- כיפת הזכוכית -->
  <path d="M45,216 C40,138 55,58 100,54 C145,58 160,138 155,216"
        fill="#a9cbd6" fill-opacity="0.12" stroke="#4a3826" stroke-width="2.2" stroke-linecap="round"/>
  <circle cx="100" cy="50" r="6" fill="#a9cbd6" fill-opacity="0.3" stroke="#4a3826" stroke-width="2"/>
  <path d="M68,88 C73,128 76,158 80,190" stroke="#fdf6e6" stroke-opacity="0.7" stroke-width="3" fill="none" stroke-linecap="round"/>
  <!-- השושנה -->
  <line x1="100" y1="205" x2="100" y2="138" stroke="#4a3826" stroke-width="2.2"/>
  <path d="M100,178 C90,173 82,176 77,183" stroke="#4a3826" stroke-width="1.6" fill="none" stroke-linecap="round"/>
  <ellipse cx="87" cy="180" rx="10" ry="5" fill="#b3cf9e" fill-opacity="0.6" stroke="#4a3826" stroke-width="1.2" transform="rotate(-20 87 180)"/>
  <path d="M100,165 C110,160 118,162 122,168" stroke="#4a3826" stroke-width="1.6" fill="none" stroke-linecap="round"/>
  <ellipse cx="112" cy="167" rx="10" ry="5" fill="#b3cf9e" fill-opacity="0.6" stroke="#4a3826" stroke-width="1.2" transform="rotate(18 112 167)"/>
  <path d="M96,190 L90,195 M96,196 L89,201" stroke="#4a3826" stroke-width="1.4" stroke-linecap="round"/>
  <g fill="#ddaaa4" fill-opacity="0.7" stroke="#4a3826" stroke-width="1.5" stroke-linejoin="round">
    <ellipse cx="100" cy="128" rx="12" ry="16"/>
    <ellipse cx="87" cy="134" rx="11" ry="14" transform="rotate(-35 87 134)"/>
    <ellipse cx="113" cy="134" rx="11" ry="14" transform="rotate(35 113 134)"/>
    <ellipse cx="100" cy="118" rx="9" ry="12"/>
  </g>
</svg>
